# Blender v3.2.1 OBJ File: ''
# www.blender.org
mtllib Barakobj.mtl
o Cube
v 2.857547 -0.081747 -2.857547
v 2.857547 0.081747 -2.857547
v 2.857547 -0.081747 2.857547
v 2.857547 0.081747 2.857547
v -2.857547 -0.081747 -2.857547
v -2.857547 0.081747 -2.857547
v -2.857547 -0.081747 2.857547
v -2.857547 0.081747 2.857547
v 2.406368 0.029626 2.846328
v 2.406368 3.873436 2.846328
v 2.406368 0.029626 2.486026
v 2.406368 3.873436 2.486026
v 2.851219 0.029626 2.846328
v 2.851219 3.873436 2.846328
v 2.851219 0.029626 2.486026
v 2.851219 3.873436 2.486026
v -2.793645 0.029626 2.846328
v -2.793645 3.873436 2.846328
v -2.793645 0.029626 2.486026
v -2.793645 3.873436 2.486026
v -2.348794 0.029626 2.846328
v -2.348794 3.873436 2.846328
v -2.348794 0.029626 2.486026
v -2.348794 3.873436 2.486026
v 2.406368 0.029626 -2.496464
v 2.406368 3.873436 -2.496464
v 2.406368 0.029626 -2.856765
v 2.406368 3.873436 -2.856765
v 2.851219 0.029626 -2.496464
v 2.851219 3.873436 -2.496464
v 2.851219 0.029626 -2.856765
v 2.851219 3.873436 -2.856765
v -2.793645 0.029626 -2.496464
v -2.793645 3.873436 -2.496464
v -2.793645 0.029626 -2.856765
v -2.793645 3.873436 -2.856765
v -2.348794 0.029626 -2.496464
v -2.348794 3.873436 -2.496464
v -2.348794 0.029626 -2.856765
v -2.348794 3.873436 -2.856765
v 2.857547 3.882240 -2.857547
v 1.802802 4.327000 -1.802802
v 2.857547 3.882240 2.857547
v 1.802802 4.327000 1.802802
v -2.857547 3.882240 -2.857547
v -1.802802 4.327000 -1.802802
v -2.857547 3.882240 2.857547
v -1.802802 4.327000 1.802802
v 2.559172 0.024479 2.643041
v 2.559172 2.024479 2.643041
v 2.559172 0.024479 -1.085681
v 2.559172 2.024479 -1.085681
v 2.802914 0.024479 2.643041
v 2.802914 2.024479 2.643041
v 2.802914 0.024479 -1.085681
v 2.802914 2.024479 -1.085681
v -2.751094 0.024479 1.200429
v -2.751094 2.024479 1.200429
v -2.751094 0.024479 -2.528293
v -2.751094 2.024479 -2.528293
v -2.507352 0.024479 1.200429
v -2.507352 2.024479 1.200429
v -2.507352 0.024479 -2.528293
v -2.507352 2.024479 -2.528293
v 1.374811 0.024479 2.790303
v 1.374811 2.024479 2.790303
v -2.353911 0.024479 2.790303
v -2.353911 2.024479 2.790303
v 1.374811 0.024479 2.546561
v 1.374811 2.024479 2.546561
v -2.353911 0.024479 2.546561
v -2.353911 2.024479 2.546561
v 2.448069 0.024479 -2.593337
v 2.448069 2.024479 -2.593337
v -1.280653 0.024479 -2.593337
v -1.280653 2.024479 -2.593337
v 2.448069 0.024479 -2.837079
v 2.448069 2.024479 -2.837079
v -1.280653 0.024479 -2.837079
v -1.280653 2.024479 -2.837079
vt 0.625000 0.500000
vt 0.625000 0.750000
vt 0.875000 0.750000
vt 0.875000 0.500000
vt 0.375000 0.750000
vt 0.375000 1.000000
vt 0.625000 1.000000
vt 0.375000 0.000000
vt 0.375000 0.250000
vt 0.625000 0.250000
vt 0.625000 0.000000
vt 0.125000 0.500000
vt 0.125000 0.750000
vt 0.375000 0.500000
vt 0.375000 0.000000
vt 0.375000 0.250000
vt 0.625000 0.250000
vt 0.625000 0.000000
vt 0.375000 0.500000
vt 0.625000 0.500000
vt 0.375000 0.750000
vt 0.625000 0.750000
vt 0.375000 1.000000
vt 0.625000 1.000000
vt 0.125000 0.500000
vt 0.125000 0.750000
vt 0.875000 0.750000
vt 0.875000 0.500000
vt 0.375000 0.000000
vt 0.375000 0.250000
vt 0.625000 0.250000
vt 0.625000 0.000000
vt 0.375000 0.500000
vt 0.625000 0.500000
vt 0.375000 0.750000
vt 0.625000 0.750000
vt 0.375000 1.000000
vt 0.625000 1.000000
vt 0.125000 0.500000
vt 0.125000 0.750000
vt 0.875000 0.750000
vt 0.875000 0.500000
vt 0.375000 0.000000
vt 0.375000 0.250000
vt 0.625000 0.250000
vt 0.625000 0.000000
vt 0.375000 0.500000
vt 0.625000 0.500000
vt 0.375000 0.750000
vt 0.625000 0.750000
vt 0.375000 1.000000
vt 0.625000 1.000000
vt 0.125000 0.500000
vt 0.125000 0.750000
vt 0.875000 0.750000
vt 0.875000 0.500000
vt 0.375000 0.000000
vt 0.375000 0.250000
vt 0.625000 0.250000
vt 0.625000 0.000000
vt 0.375000 0.500000
vt 0.625000 0.500000
vt 0.375000 0.750000
vt 0.625000 0.750000
vt 0.375000 1.000000
vt 0.625000 1.000000
vt 0.125000 0.500000
vt 0.125000 0.750000
vt 0.875000 0.750000
vt 0.875000 0.500000
vt 0.625000 0.500000
vt 0.625000 0.750000
vt 0.875000 0.750000
vt 0.875000 0.500000
vt 0.375000 0.750000
vt 0.375000 1.000000
vt 0.625000 1.000000
vt 0.375000 0.000000
vt 0.375000 0.250000
vt 0.625000 0.250000
vt 0.625000 0.000000
vt 0.125000 0.500000
vt 0.125000 0.750000
vt 0.375000 0.500000
vt 0.375000 0.000000
vt 0.375000 0.250000
vt 0.625000 0.250000
vt 0.625000 0.000000
vt 0.375000 0.500000
vt 0.625000 0.500000
vt 0.375000 0.750000
vt 0.625000 0.750000
vt 0.375000 1.000000
vt 0.625000 1.000000
vt 0.125000 0.500000
vt 0.125000 0.750000
vt 0.875000 0.750000
vt 0.875000 0.500000
vt 0.375000 0.000000
vt 0.375000 0.250000
vt 0.625000 0.250000
vt 0.625000 0.000000
vt 0.375000 0.500000
vt 0.625000 0.500000
vt 0.375000 0.750000
vt 0.625000 0.750000
vt 0.375000 1.000000
vt 0.625000 1.000000
vt 0.125000 0.500000
vt 0.125000 0.750000
vt 0.875000 0.750000
vt 0.875000 0.500000
vt 0.375000 0.000000
vt 0.375000 0.250000
vt 0.625000 0.250000
vt 0.625000 0.000000
vt 0.375000 0.500000
vt 0.625000 0.500000
vt 0.375000 0.750000
vt 0.625000 0.750000
vt 0.375000 1.000000
vt 0.625000 1.000000
vt 0.125000 0.500000
vt 0.125000 0.750000
vt 0.875000 0.750000
vt 0.875000 0.500000
vt 0.375000 0.000000
vt 0.375000 0.250000
vt 0.625000 0.250000
vt 0.625000 0.000000
vt 0.375000 0.500000
vt 0.625000 0.500000
vt 0.375000 0.750000
vt 0.625000 0.750000
vt 0.375000 1.000000
vt 0.625000 1.000000
vt 0.125000 0.500000
vt 0.125000 0.750000
vt 0.875000 0.750000
vt 0.875000 0.500000
vn 0.0000 -1.0000 0.0000
vn 0.0000 0.0000 1.0000
vn -1.0000 0.0000 0.0000
vn 0.0000 1.0000 0.0000
vn 1.0000 0.0000 0.0000
vn 0.0000 0.0000 -1.0000
vn 0.0000 0.9214 0.3885
vn -0.3885 0.9214 0.0000
vn 0.3885 0.9214 0.0000
vn 0.0000 0.9214 -0.3885
usemtl Material
s off
f 1/1/1 3/2/1 7/3/1 5/4/1
f 4/5/2 8/6/2 7/7/2 3/2/2
f 8/8/3 6/9/3 5/10/3 7/11/3
f 6/12/4 8/13/4 4/5/4 2/14/4
f 2/14/5 4/5/5 3/2/5 1/1/5
f 6/9/6 2/14/6 1/1/6 5/10/6
f 9/15/5 11/16/5 12/17/5 10/18/5
f 11/16/2 15/19/2 16/20/2 12/17/2
f 15/19/3 13/21/3 14/22/3 16/20/3
f 13/21/6 9/23/6 10/24/6 14/22/6
f 11/25/4 9/26/4 13/21/4 15/19/4
f 16/20/1 14/22/1 10/27/1 12/28/1
f 17/29/5 19/30/5 20/31/5 18/32/5
f 19/30/2 23/33/2 24/34/2 20/31/2
f 23/33/3 21/35/3 22/36/3 24/34/3
f 21/35/6 17/37/6 18/38/6 22/36/6
f 19/39/4 17/40/4 21/35/4 23/33/4
f 24/34/1 22/36/1 18/41/1 20/42/1
f 25/43/5 27/44/5 28/45/5 26/46/5
f 27/44/2 31/47/2 32/48/2 28/45/2
f 31/47/3 29/49/3 30/50/3 32/48/3
f 29/49/6 25/51/6 26/52/6 30/50/6
f 27/53/4 25/54/4 29/49/4 31/47/4
f 32/48/1 30/50/1 26/55/1 28/56/1
f 33/57/5 35/58/5 36/59/5 34/60/5
f 35/58/2 39/61/2 40/62/2 36/59/2
f 39/61/3 37/63/3 38/64/3 40/62/3
f 37/63/6 33/65/6 34/66/6 38/64/6
f 35/67/4 33/68/4 37/63/4 39/61/4
f 40/62/1 38/64/1 34/69/1 36/70/1
f 41/71/1 43/72/1 47/73/1 45/74/1
f 44/75/7 48/76/7 47/77/7 43/72/7
f 48/78/8 46/79/8 45/80/8 47/81/8
f 46/82/4 48/83/4 44/75/4 42/84/4
f 42/84/9 44/75/9 43/72/9 41/71/9
f 46/79/10 42/84/10 41/71/10 45/80/10
f 49/85/5 51/86/5 52/87/5 50/88/5
f 51/86/2 55/89/2 56/90/2 52/87/2
f 55/89/3 53/91/3 54/92/3 56/90/3
f 53/91/6 49/93/6 50/94/6 54/92/6
f 51/95/4 49/96/4 53/91/4 55/89/4
f 56/90/1 54/92/1 50/97/1 52/98/1
f 57/99/5 59/100/5 60/101/5 58/102/5
f 59/100/2 63/103/2 64/104/2 60/101/2
f 63/103/3 61/105/3 62/106/3 64/104/3
f 61/105/6 57/107/6 58/108/6 62/106/6
f 59/109/4 57/110/4 61/105/4 63/103/4
f 64/104/1 62/106/1 58/111/1 60/112/1
f 65/113/6 67/114/6 68/115/6 66/116/6
f 67/114/5 71/117/5 72/118/5 68/115/5
f 71/117/2 69/119/2 70/120/2 72/118/2
f 69/119/3 65/121/3 66/122/3 70/120/3
f 67/123/4 65/124/4 69/119/4 71/117/4
f 72/118/1 70/120/1 66/125/1 68/126/1
f 73/127/6 75/128/6 76/129/6 74/130/6
f 75/128/5 79/131/5 80/132/5 76/129/5
f 79/131/2 77/133/2 78/134/2 80/132/2
f 77/133/3 73/135/3 74/136/3 78/134/3
f 75/137/4 73/138/4 77/133/4 79/131/4
f 80/132/1 78/134/1 74/139/1 76/140/1
